<?xml version="1.0" encoding="UTF-8" standalone="no"?>
<svg
   xmlns:dc="http://purl.org/dc/elements/1.1/"
   xmlns:cc="http://creativecommons.org/ns#"
   xmlns:rdf="http://www.w3.org/1999/02/22-rdf-syntax-ns#"
   xmlns:svg="http://www.w3.org/2000/svg"
   xmlns="http://www.w3.org/2000/svg"
   xmlns:sodipodi="http://sodipodi.sourceforge.net/DTD/sodipodi-0.dtd"
   xmlns:inkscape="http://www.inkscape.org/namespaces/inkscape"
   version="1.0"
   width="164px"
   height="164px"
   viewBox="0 0 128 128"
   xml:space="preserve"
   id="svg3779"
   sodipodi:docname="vamalaka_loading_trans.svg"
   inkscape:version="0.92.5 (2060ec1f9f, 2020-04-08)"><metadata
     id="metadata3785"><rdf:RDF><cc:Work
         rdf:about=""><dc:format>image/svg+xml</dc:format><dc:type
           rdf:resource="http://purl.org/dc/dcmitype/StillImage" /><dc:title></dc:title></cc:Work></rdf:RDF></metadata><defs
     id="defs3783" /><sodipodi:namedview
     pagecolor="#ffffff"
     bordercolor="#666666"
     borderopacity="1"
     objecttolerance="10"
     gridtolerance="10"
     guidetolerance="10"
     inkscape:pageopacity="0"
     inkscape:pageshadow="2"
     inkscape:window-width="1920"
     inkscape:window-height="1139"
     id="namedview3781"
     showgrid="false"
     inkscape:zoom="7.21875"
     inkscape:cx="32"
     inkscape:cy="26.458874"
     inkscape:window-x="0"
     inkscape:window-y="30"
     inkscape:window-maximized="1"
     inkscape:current-layer="svg3779" /><ellipse
     style="fill:#ffffff;stroke-width:2.38840222"
     id="path3840"
     cx="63.861473"
     cy="64"
     rx="63.030304"
     ry="63.168831" /><g
     id="g3773"><path
       d="M85.86 3.95A64 64 0 1 1 3.83 42.2 64 64 0 0 1 85.86 3.95zm-4.1 11.28A52 52 0 1 1 15.1 46.3a52 52 0 0 1 66.65-31.07zm36.32 81.38l-3.76-1.3-.6-13 8.8-9.54 3.76 1.37-8.8 9.57zm-38.7 28.7l-1.7-3.6 8.77-9.6 13-.54 1.68 3.63-13 .53zM111.96 42l-.54-13 3.63-1.68.54 13 9.6 8.75-3.7 1.7zm-80.2 76.22l1.37-3.77 13-.6 9.55 8.8-1.36 3.77-9.57-8.8zM72.63 5.87L74 2.1l9.57 8.8 12.98-.6-1.37 3.76-12.98.6zM12.73 88.2l-9.6-8.75 3.62-1.7 9.6 8.78.54 12.98-3.7 1.7zm16.14-71.24l-1.7-3.62 13-.54 8.76-9.6 1.7 3.6-8.77 9.6zM2.02 54.38l8.8-9.57-.6-12.9L14 33.2l.58 12.97-8.8 9.57z"
       fill="#ee4040"
       fill-rule="evenodd"
       id="path3771" /><animateTransform
       attributeName="transform"
       type="rotate"
       from="0 64 64"
       to="90 64 64"
       dur="630ms"
       repeatCount="indefinite" /></g><g
     id="g3777"><path
       d="M89.6 94.68a40 40 0 1 1 4.94-56.35 40 40 0 0 1-4.93 56.35zM31.93 75.16l3.88 12.4 11.6 6 3.08-2.6L38.88 85 35 72.6zm20.8-43.25l-12.4 3.9-5.97 11.6 2.57 3.07L42.9 38.9 55.3 35zM91 77.5l-6 11.52-12.4 3.9 2.57 3.05 12.4-3.88 5.98-11.6zM77.5 36.9l11.54 6 3.88 12.4L96 52.73l-3.9-12.4-11.54-6z"
       fill="#ee4040"
       fill-rule="evenodd"
       id="path3775" /><animateTransform
       attributeName="transform"
       type="rotate"
       from="0 64 64"
       to="-90 64 64"
       dur="630ms"
       repeatCount="indefinite" /></g><path
     style="fill:#ffffff;stroke-width:0.06926407"
     d="M 30.704762,57.983841 C 27.001664,57.763278 23.568044,56.863929 20.410212,55.287443 13.073968,51.624968 7.8751862,44.700785 6.4302871,36.66778 6.1216088,34.951664 6.0569029,34.166282 6.0531372,32.090043 6.0492522,29.948003 6.1215203,29.100231 6.4664449,27.241558 7.7527697,20.310025 11.860351,14.181415 17.831654,10.284392 21.270628,8.0400315 25.038759,6.7021745 29.319481,6.2056937 c 0.997032,-0.1156364 4.336301,-0.1156364 5.333333,0 4.98144,0.5777505 9.463669,2.3808539 13.251378,5.3307423 5.322829,4.145447 8.813044,10.149771 9.773326,16.813348 0.737354,5.116649 -0.06037,10.291188 -2.306675,14.962461 -1.422151,2.957419 -3.349161,5.54715 -5.860886,7.876509 -3.363472,3.119266 -7.695673,5.335763 -12.267538,6.276475 -2.182592,0.449094 -4.550767,0.636954 -6.537657,0.518612 z m 3.324675,-6.057237 c 2.51014,-0.232828 5.399272,-1.144815 7.670377,-2.42124 2.239006,-1.258386 4.509341,-3.194354 6.005397,-5.120948 1.553515,-2.000587 2.775919,-4.376697 3.456546,-6.718833 1.016611,-3.498317 1.070706,-7.214611 0.156411,-10.745341 -0.647408,-2.500091 -1.933021,-5.087495 -3.608844,-7.263099 -0.672956,-0.873653 -2.628074,-2.812137 -3.518178,-3.488247 -2.007386,-1.52478 -4.292612,-2.688222 -6.60102,-3.360675 -1.947957,-0.567452 -3.540632,-0.791054 -5.638611,-0.791628 -1.654456,-4.5e-4 -2.680046,0.100967 -4.141613,0.409558 -3.73489,0.788575 -7.252916,2.687077 -9.945937,5.367322 -4.860561,4.837503 -6.907403,11.673881 -5.503187,18.380448 1.353499,6.464338 5.956113,11.941967 12.108224,14.410147 3.092288,1.240602 6.102334,1.663291 9.560435,1.342536 z"
     id="path3789"
     inkscape:connector-curvature="0"
     transform="scale(2)" /></svg>